<?xml version="1.0" standalone="no"?>
<svg xmlns:xlink="http://www.w3.org/1999/xlink" id="wave" style="transform:rotate(180deg); transition: 0.3s" viewBox="0 0 1440 180" version="1.1" xmlns="http://www.w3.org/2000/svg"><defs><linearGradient id="sw-gradient-0" x1="0" x2="0" y1="1" y2="0"><stop stop-color="rgba(255, 232, 191, 1)" offset="0%"/><stop stop-color="rgba(233, 162, 9, 1)" offset="100%"/></linearGradient></defs><path style="transform:translate(0, 0px); opacity:1" fill="url(#sw-gradient-0)" d="M0,90L60,75C120,60,240,30,360,15C480,0,600,0,720,24C840,48,960,96,1080,99C1200,102,1320,60,1440,54C1560,48,1680,78,1800,87C1920,96,2040,84,2160,84C2280,84,2400,96,2520,90C2640,84,2760,60,2880,57C3000,54,3120,72,3240,81C3360,90,3480,90,3600,78C3720,66,3840,42,3960,48C4080,54,4200,90,4320,114C4440,138,4560,150,4680,129C4800,108,4920,54,5040,42C5160,30,5280,60,5400,78C5520,96,5640,102,5760,87C5880,72,6000,36,6120,42C6240,48,6360,96,6480,102C6600,108,6720,72,6840,63C6960,54,7080,72,7200,66C7320,60,7440,30,7560,21C7680,12,7800,24,7920,51C8040,78,8160,120,8280,141C8400,162,8520,162,8580,162L8640,162L8640,180L8580,180C8520,180,8400,180,8280,180C8160,180,8040,180,7920,180C7800,180,7680,180,7560,180C7440,180,7320,180,7200,180C7080,180,6960,180,6840,180C6720,180,6600,180,6480,180C6360,180,6240,180,6120,180C6000,180,5880,180,5760,180C5640,180,5520,180,5400,180C5280,180,5160,180,5040,180C4920,180,4800,180,4680,180C4560,180,4440,180,4320,180C4200,180,4080,180,3960,180C3840,180,3720,180,3600,180C3480,180,3360,180,3240,180C3120,180,3000,180,2880,180C2760,180,2640,180,2520,180C2400,180,2280,180,2160,180C2040,180,1920,180,1800,180C1680,180,1560,180,1440,180C1320,180,1200,180,1080,180C960,180,840,180,720,180C600,180,480,180,360,180C240,180,120,180,60,180L0,180Z"/><defs><linearGradient id="sw-gradient-1" x1="0" x2="0" y1="1" y2="0"><stop stop-color="rgba(255, 232, 191, 1)" offset="0%"/><stop stop-color="rgba(233, 162, 9, 1)" offset="100%"/></linearGradient></defs><path style="transform:translate(0, 50px); opacity:0.9" fill="url(#sw-gradient-1)" d="M0,90L60,102C120,114,240,138,360,123C480,108,600,54,720,51C840,48,960,96,1080,123C1200,150,1320,156,1440,132C1560,108,1680,54,1800,45C1920,36,2040,72,2160,84C2280,96,2400,84,2520,87C2640,90,2760,108,2880,117C3000,126,3120,126,3240,105C3360,84,3480,42,3600,48C3720,54,3840,108,3960,123C4080,138,4200,114,4320,102C4440,90,4560,90,4680,93C4800,96,4920,102,5040,93C5160,84,5280,60,5400,57C5520,54,5640,72,5760,75C5880,78,6000,66,6120,63C6240,60,6360,66,6480,72C6600,78,6720,84,6840,93C6960,102,7080,114,7200,102C7320,90,7440,54,7560,48C7680,42,7800,66,7920,75C8040,84,8160,78,8280,75C8400,72,8520,72,8580,72L8640,72L8640,180L8580,180C8520,180,8400,180,8280,180C8160,180,8040,180,7920,180C7800,180,7680,180,7560,180C7440,180,7320,180,7200,180C7080,180,6960,180,6840,180C6720,180,6600,180,6480,180C6360,180,6240,180,6120,180C6000,180,5880,180,5760,180C5640,180,5520,180,5400,180C5280,180,5160,180,5040,180C4920,180,4800,180,4680,180C4560,180,4440,180,4320,180C4200,180,4080,180,3960,180C3840,180,3720,180,3600,180C3480,180,3360,180,3240,180C3120,180,3000,180,2880,180C2760,180,2640,180,2520,180C2400,180,2280,180,2160,180C2040,180,1920,180,1800,180C1680,180,1560,180,1440,180C1320,180,1200,180,1080,180C960,180,840,180,720,180C600,180,480,180,360,180C240,180,120,180,60,180L0,180Z"/></svg>