<?xml version="1.0" standalone="no"?>
<svg xmlns:xlink="http://www.w3.org/1999/xlink" id="wave" style="transform:rotate(0deg); transition: 0.3s" viewBox="0 0 1440 180" version="1.1" xmlns="http://www.w3.org/2000/svg"><defs><linearGradient id="sw-gradient-0" x1="0" x2="0" y1="1" y2="0"><stop stop-color="rgba(233, 162, 9, 1)" offset="0%"/><stop stop-color="rgba(255, 232, 191, 1)" offset="100%"/></linearGradient></defs><path style="transform:translate(0, 0px); opacity:1" fill="url(#sw-gradient-0)" d="M0,72L80,60C160,48,320,24,480,27C640,30,800,60,960,66C1120,72,1280,54,1440,54C1600,54,1760,72,1920,72C2080,72,2240,54,2400,57C2560,60,2720,84,2880,99C3040,114,3200,120,3360,117C3520,114,3680,102,3840,84C4000,66,4160,42,4320,54C4480,66,4640,114,4800,129C4960,144,5120,126,5280,105C5440,84,5600,60,5760,48C5920,36,6080,36,6240,30C6400,24,6560,12,6720,21C6880,30,7040,60,7200,60C7360,60,7520,30,7680,24C7840,18,8000,36,8160,39C8320,42,8480,30,8640,21C8800,12,8960,6,9120,24C9280,42,9440,84,9600,90C9760,96,9920,66,10080,48C10240,30,10400,24,10560,39C10720,54,10880,90,11040,108C11200,126,11360,126,11440,126L11520,126L11520,180L11440,180C11360,180,11200,180,11040,180C10880,180,10720,180,10560,180C10400,180,10240,180,10080,180C9920,180,9760,180,9600,180C9440,180,9280,180,9120,180C8960,180,8800,180,8640,180C8480,180,8320,180,8160,180C8000,180,7840,180,7680,180C7520,180,7360,180,7200,180C7040,180,6880,180,6720,180C6560,180,6400,180,6240,180C6080,180,5920,180,5760,180C5600,180,5440,180,5280,180C5120,180,4960,180,4800,180C4640,180,4480,180,4320,180C4160,180,4000,180,3840,180C3680,180,3520,180,3360,180C3200,180,3040,180,2880,180C2720,180,2560,180,2400,180C2240,180,2080,180,1920,180C1760,180,1600,180,1440,180C1280,180,1120,180,960,180C800,180,640,180,480,180C320,180,160,180,80,180L0,180Z"/></svg>